# xmcd
# 
# Track frame offsets:
#     150
#     13564
#     26815
#     39016
#     52975
#     66807
#     79976
#     95147
#     108161
#     123724
#     136813
# 
# Disc length: 1986
# 
# Revision: 1
# Processed by: cddbd v1.5.2PL0 Copyright (c) Steve Scherf et al.
# Submitted via: fre:ac v1.1beta1pre4
# 
DISCID=8b07c00b
DTITLE=Todd Grebe and Cold Country - Until Tomorrow
DYEAR=2011
DGENRE=Folk
TTITLE0=Master of My Destiny
TTITLE1=Until Tomorrow
TTITLE2=Let Me Fall
TTITLE3=Livin' Out of Town
TTITLE4=I'm Goin' Crazy
TTITLE5=Day Are Few
TTITLE6=Mr. Moonshine
TTITLE7=Must Be Hard Being You
TTITLE8=Last of the Late Night Wine
TTITLE9=Money Bag Guarantee
TTITLE10=No Whiskey for Me
EXTD=
EXTT0=
EXTT1=
EXTT2=
EXTT3=
EXTT4=
EXTT5=
EXTT6=
EXTT7=
EXTT8=
EXTT9=
EXTT10=
PLAYORDER=
